<svg fill="none" height="37" viewBox="0 0 278 37" width="278" xmlns="http://www.w3.org/2000/svg"><g fill="#fff"><path d="m126.71 31.5226c-2.42-2.0439-4.225-4.6756-5.227-7.6202-1.003-2.9447-1.165-6.0945-.472-9.1204l-.998-.9798c-.942 3.441-.833 7.0709.316 10.4533s3.288 6.3736 6.16 8.614z"/><path d="m140.274 1.28282c6.664.60445 12.285 4.72309 14.826 10.40458l1.399.2201c-2.65-6.63251-9.165-11.436094-16.875-11.8385137z"/><path d="m156.138 14.782c.694 3.0259.532 6.1759-.471 9.1207-1.002 2.9449-2.808 5.5765-5.228 7.6199l.221 1.3436c2.872-2.24 5.01-5.2308 6.158-8.6127 1.148-3.382 1.257-7.0112.314-10.4513z"/><path d="m147.608 33.423c-2.735 1.5594-5.851 2.3918-9.03 2.4121-3.178.0204-6.306-.772-9.062-2.2963l-1.258.6299c3.092 1.8721 6.676 2.8543 10.328 2.8309 3.653-.0234 7.223-1.0515 10.288-2.9631z"/><path d="m122.048 11.6874c2.545-5.68149 8.163-9.80013 14.827-10.40458l.65-1.2138337c-7.71.4015987-14.225 5.2060037-16.875 11.8385137z"/><path d="m147.888 21.5919h-3.737c-.335.0097-.664-.0905-.932-.2842-.255-.19-.383-.4185-.382-.6857v-1.9555c0-.2677.127-.4963.382-.6857.268-.1939.597-.2944.932-.285h5.25v1.0315h-4.639c-.218-.0075-.433.0458-.62.1536-.17.1026-.256.2258-.264.3687v.7499c0 .1429.083.2677.251.3744.186.1135.404.1707.625.1643h2.738c.197.0062.392-.0404.563-.1347.066-.0311.123-.0763.167-.1319.045-.0557.075-.1204.089-.1892h-3.462v-.9132h4.548v.9378l7.422-7.2887-12.419-1.9505-5.826-10.8678-5.825 10.8678-12.423 1.9505 7.895 7.7528v-1.3757h1.043v2.4006l-1.968 11.9617 11.278-5.5534 11.279 5.5534-1.968-11.9617zm-5.051-7.577c0-.2677.127-.4963.382-.6858.268-.1939.597-.2944.932-.2849l3.935.0065 1.315-.0065v1.0306h-4.639c-.218-.0073-.433.0464-.62.1544-.17.1027-.256.2259-.264.368v.7498c0 .1429.083.2677.251.3745.186.1139.404.1712.625.1642h4.645v1.0513h-5.25c-.335.0097-.663-.0905-.932-.2842-.255-.1905-.382-.4194-.382-.6866zm-7.309.4928h1.044v1.3789h3.615c.212.0021.419-.0549.597-.1643.178-.1095.268-.2376.268-.3843v-.7499c-.045-.1503-.15-.2777-.291-.3548-.184-.1084-.397-.1622-.613-.1543h-4.624v-1.0348h1.315l3.935.0065c.335-.0094.664.0911.932.285.255.19.383.4186.383.6858v1.948c0 .2677-.128.4966-.383.6866-.268.1937-.597.2939-.932.2841h-5.25zm0 4.6615h5.48v-.4419h-5.48v-1.0315h1.315l3.935.0074c.333-.016.662.0722.939.2513.25.1714.375.429.375.7728v.4419c0 .3391-.111.5748-.33.7161s-.551.2078-.991.2078l1.321 1.4988h-1.14l-1.322-1.4988h-3.058v1.4988h-1.044zm-7.307-6.1209h1.432l1.877 2.6912 1.766-2.6912h1.489v3.8887h-1.044v-2.8622l-1.877 2.8654h-.695l-1.891-2.8654h-1.057zm0 1.4996h1.043v2.3891h-1.043zm0 4.1835v-1.0356h1.07l4.451 2.8391v-2.8391h1.043v3.8961h-1.043l-4.464-2.8646z"/><path d="m138.575 9.75992.325.63318.726.1019-.526.4927.124.6973-.649-.3294-.65.3294.124-.6973-.526-.4927.727-.1019z"/><path d="m203.729 15.6229h29.167v-2.3554h-29.167v-5.4893h6.996l20.951.03778c1.998-.02354 3.665.42186 4.999 1.3362 1.334.91432 2 2.28612 1.997 4.11532v2.3554c0 1.8068-.586 3.0781-1.757 3.814-1.172.7358-2.93 1.1035-5.275 1.1029l7.031 7.977h-6.071l-7.034-7.9819h-16.285v7.9819h-5.552z"/><path d="m78.2088 13.2027c0-1.434.6825-2.6574 2.0475-3.67027 1.365-1.0129 3.0268-1.52126 4.9856-1.52509l21.0601.03778 7.03-.03778v5.51806h-24.815c-1.3172 0-2.4215.2738-3.3127.8213s-1.3621 1.2045-1.4127 1.971v4.0119c0 .7665.4461 1.4348 1.3385 2.0047.8924.57 2.0088.8571 3.3493.8615h24.8516v5.6577h-28.09c-1.9587 0-3.6206-.5073-4.9856-1.5218-1.3649-1.0145-2.0474-2.2382-2.0474-3.671z"/><path d="m39.1057 15.8184h5.5802v7.3791h19.3468c1.1388.0135 2.2572-.2921 3.2188-.8796.9529-.5839 1.4332-1.2705 1.4332-2.0589v-4.0111c-.1706-.7161-.6919-1.3493-1.5637-1.8996-.8719-.5502-1.9633-.824-3.2743-.8212h-24.7402v-5.51976h7.0305l21.059.03778c1.9599 0 3.6221.50726 4.9865 1.5218 1.3644 1.01458 2.0469 2.23818 2.0474 3.67108v10.4243c0 1.4323-.6825 2.656-2.0474 3.6711-1.365 1.015-3.0272 1.5223-4.9865 1.5218h-28.0903z"/><path d="m0 8.00734h7.66519l10.04621 14.40166 9.4508-14.40166h7.9629v20.84786h-5.5828v-15.3298l-10.0453 15.3298h-3.7204l-10.11963-15.3298h-5.65697z"/><path d="m0 16.0319h5.5819v12.8233h-5.5819z"/><path d="m164.825 16.0319h5.583v12.8233h-5.583z"/><path d="m164.825 13.2675v-5.4893h5.702l23.689 15.1121v-15.1121h5.554v20.7402h-5.554l-23.763-15.2509z"/><path clip-rule="evenodd" d="m277.981 8.05169v5.56241h-.55c-8.202 0-16.404-.0115-24.606.0107-1.418.0041-2.715.4574-3.656 1.5382-.288.3422-.462.7601-.499 1.1991-.065 1.1727.028 2.3545-.038 3.5314.157 1.0956.374 1.7789 1.229 2.3283.768.4928 1.607.8213 2.537.8558 1.203.0451 2.406.0821 3.609.0821 3.98.0098 7.96.0271 11.944-.009 1.365-.0124 2.675-.3351 3.657-1.3543.256-.2612.397-.6176.651-1.0266h-18.443v-4.8923h24.153c.008.1232.024.2415.024.3597 0 2.5591.021 5.1182-.009 7.6772-.012.9699-.415 1.8208-1.092 2.5566-1.137 1.2319-2.579 1.9201-4.234 2.2306-.345.0655-.695.0987-1.047.0994-7.391.0057-14.783.0221-22.175-.0091-1.72-.0066-3.276-.5798-4.616-1.6672-.767-.6258-1.36-1.3509-1.616-2.2995-.091-.2963-.142-.6022-.154-.9108-.01-3.6398-.006-7.2797-.007-10.9228 0-.9131.35-1.7942.981-2.4753 1.263-1.41093 2.878-2.20592 4.808-2.38577.463-.04271.928-.08213 1.392-.08213 9.055-.00383 18.11-.00383 27.165 0z" fill-rule="evenodd"/></g></svg>